<svg width="115" height="115" viewBox="0 0 115 115" fill="none" xmlns="http://www.w3.org/2000/svg">
<path fill-rule="evenodd" clip-rule="evenodd" d="M57.5001 0C89.2564 0 115 25.7432 115 57.4995C115 89.256 89.2564 115 57.5001 115C25.7438 115 0 89.256 0 57.4995C0 25.7432 25.7438 0 57.5001 0Z" fill="#F9BF3B"/>
<path d="M63.2495 36.2958C63.1528 36.2958 63.0544 36.2763 62.9601 36.2351C62.5969 36.0767 62.4321 35.6566 62.5921 35.2969L65.654 28.4138C65.7516 28.1943 65.9542 28.0384 66.1929 27.9987C66.4313 27.9588 66.6746 28.0411 66.8389 28.217L69.9583 31.5525C70.2281 31.8409 70.2107 32.2912 69.9193 32.5584C69.6284 32.8255 69.1736 32.8084 68.9038 32.5198L66.5283 29.9796L63.9077 35.8707C63.7891 36.1372 63.5258 36.2958 63.2495 36.2958Z" fill="#415A6B"/>
<path d="M78.0172 49.7082H35.0331C34.6362 49.7082 34.3144 49.3894 34.3144 48.9964V42.5475C34.3144 42.1544 34.6362 41.8357 35.0331 41.8357H78.0172C78.4142 41.8357 78.7359 42.1544 78.7359 42.5475V48.9964C78.7359 49.3894 78.4141 49.7082 78.0172 49.7082ZM35.7519 48.2846H77.2984V43.2593H35.7519V48.2846Z" fill="#415A6B"/>
<path d="M58.4788 87.9887H28.5198V58.3196H58.4787H84.5303V87.9887H58.4788Z" fill="#415A6B"/>
<path d="M30.4734 61.0614H60.4322H84.5305V58.3196H58.4788H28.5198V87.9887H30.4734V61.0614Z" fill="#344C59"/>
<path d="M78.3837 29.2184C79.7134 30.5338 79.2132 32.5282 79.2863 35.0878C76.7019 35.0152 74.6894 35.5092 73.361 34.1924C72.6264 33.4664 72.5934 32.3204 73.2877 31.6328C73.9143 31.0121 74.5611 31.0292 75.5388 31.3765C75.188 30.4085 75.1706 29.7679 75.7975 29.1472C76.4934 28.4582 77.6506 28.4909 78.3837 29.2184Z" fill="#EF3E5C"/>
<path d="M78.3837 29.2184C77.6505 28.4909 76.4934 28.4582 75.7977 29.1472C75.468 29.4735 75.318 29.8059 75.2993 30.188C75.9847 29.8251 76.8794 29.9504 77.4853 30.5516C78.5732 31.6278 78.436 33.159 78.3905 35.0821C78.681 35.0789 78.9796 35.0793 79.2863 35.088C79.2132 32.5282 79.7134 30.5338 78.3837 29.2184Z" fill="#DD2C52"/>
<path d="M63.2758 33.2747C64.2944 34.2809 64.2958 35.9143 63.2796 36.9231C62.2638 37.9318 60.6151 37.9344 59.5965 36.9282C58.5779 35.922 58.5746 34.2884 59.5906 33.2795C60.6065 32.2708 62.257 32.2685 63.2758 33.2747Z" fill="#415A6B"/>
<path d="M61.1947 37.4551C60.1761 36.4489 60.1728 34.8154 61.1888 33.8065C61.6918 33.3071 62.3503 33.0552 63.0108 33.0492C61.9885 32.2782 60.5228 32.3538 59.5906 33.2796C58.5746 34.2883 58.5779 35.9221 59.5965 36.9283C60.111 37.4365 60.7861 37.6865 61.4595 37.6803C61.3678 37.6112 61.2785 37.5378 61.1947 37.4551Z" fill="#344C59"/>
<path d="M54.09 31.6316C54.7858 32.3206 54.7526 33.4666 54.0182 34.1926C52.6899 35.5094 50.676 35.014 48.0914 35.0866C48.1648 32.527 47.6659 30.534 48.9955 29.2186C49.7288 28.4911 50.8858 28.4584 51.5802 29.146C52.2068 29.7666 52.1897 30.4073 51.8389 31.3753C52.8164 31.0279 53.4633 31.0109 54.09 31.6316Z" fill="#EF3E5C"/>
<path d="M50.0018 30.575C50.5758 30.0054 51.4091 29.8637 52.0772 30.1583C52.0527 29.788 51.9014 29.4643 51.5802 29.146C50.8858 28.4584 49.7287 28.4911 48.9955 29.2186C47.6659 30.534 48.1648 32.527 48.0914 35.0866C48.4362 35.0769 48.7706 35.0775 49.0947 35.0823C49.049 33.1697 48.9179 31.6472 50.0018 30.575Z" fill="#DD2C52"/>
<path d="M36.6088 29.4962C38.4747 31.3441 37.7734 34.1443 37.8767 37.7374C34.247 37.6349 31.4224 38.3282 29.5565 36.4804C28.5272 35.4611 28.4812 33.851 29.4528 32.8872C30.3356 32.0146 31.2425 32.0402 32.6153 32.5271C32.1237 31.1675 32.0978 30.2693 32.979 29.3966C33.9538 28.43 35.5796 28.4769 36.6088 29.4962Z" fill="#EF3E5C"/>
<path d="M36.6086 29.4962C35.5794 28.4769 33.9536 28.43 32.9789 29.3966C32.3854 29.9844 32.2046 30.5844 32.2993 31.3285C32.3223 31.3043 32.3436 31.28 32.368 31.2557C33.3426 30.289 34.9684 30.336 35.9977 31.3553C37.5263 32.8692 37.3318 35.0226 37.2686 37.7273C37.4688 37.7286 37.6712 37.7316 37.8765 37.7374C37.7731 34.1443 38.4745 31.3441 36.6086 29.4962Z" fill="#DD2C52"/>
<path d="M84.5305 48V58.3196H58.4788H28.5198V48H35.0331H78.0172H84.5305Z" fill="#F78F4B"/>
<path d="M30.4734 50.0023H36.9867H79.9706H84.5305V48H78.0172H35.0331H28.5198V58.3196H30.4734V50.0023Z" fill="#E2783D"/>
<path d="M70.2015 81.5399C75.2372 81.5399 79.3195 77.4971 79.3195 72.5101C79.3195 67.523 75.2372 63.4802 70.2015 63.4802C65.1657 63.4802 61.0834 67.523 61.0834 72.5101C61.0834 77.4971 65.1657 81.5399 70.2015 81.5399Z" fill="#EF3E5C"/>
<path d="M61.9467 74.3608C61.9467 69.374 66.0291 65.3309 71.0648 65.3309C74.3651 65.3309 77.2557 67.0677 78.8562 69.6686C77.6533 66.0744 74.2342 63.4802 70.2016 63.4802C65.1661 63.4802 61.0834 67.5232 61.0834 72.5101C61.0834 74.2286 61.5684 75.8349 62.4101 77.2024C62.1108 76.3087 61.9467 75.3539 61.9467 74.3608Z" fill="#DD2C52"/>
<path d="M54.5716 77.6692H51.9668V80.2502H54.5716V77.6692Z" fill="white"/>
<path d="M54.5716 73.7998H51.9668V76.3794H54.5716V73.7998Z" fill="white"/>
<path d="M54.5716 69.9304H51.9668V72.51H54.5716V69.9304Z" fill="white"/>
<path d="M54.5716 66.0598H51.9668V68.6394H54.5716V66.0598Z" fill="white"/>
<path d="M50.663 77.6692H45.4535V80.2502H50.663V77.6692Z" fill="white"/>
<path d="M50.663 73.7998H48.0583V76.3794H50.663V73.7998Z" fill="white"/>
<path d="M50.663 69.9304H45.4535V72.51H50.663V69.9304Z" fill="white"/>
<path d="M50.663 66.0598H48.0583V68.6394H50.663V66.0598Z" fill="white"/>
<path d="M46.7559 73.7998H44.1512V76.3794H46.7559V73.7998Z" fill="white"/>
<path d="M46.7559 66.0598H44.1512V68.6394H46.7559V66.0598Z" fill="white"/>
<path d="M44.1512 77.6692H41.5466V80.2502H44.1512V77.6692Z" fill="white"/>
<path d="M44.1512 69.9304H41.5466V72.51H44.1512V69.9304Z" fill="white"/>
<path d="M42.8488 73.7998H37.6378V76.3794H42.8488V73.7998Z" fill="white"/>
<path d="M42.8488 66.0598H37.6378V68.6394H42.8488V66.0598Z" fill="white"/>
<path d="M40.2426 77.6692H37.6378V80.2502H40.2426V77.6692Z" fill="white"/>
<path d="M40.2426 69.9304H37.6378V72.51H40.2426V69.9304Z" fill="white"/>
<path d="M36.3355 77.6692H33.7307V80.2502H36.3355V77.6692Z" fill="white"/>
<path d="M36.3355 73.7998H33.7307V76.3794H36.3355V73.7998Z" fill="white"/>
<path d="M36.3355 69.9304H33.7307V72.51H36.3355V69.9304Z" fill="white"/>
<path d="M36.3355 66.0598H33.7307V68.6394H36.3355V66.0598Z" fill="white"/>
<path d="M79.3195 53.8723H33.7307C33.3337 53.8723 33.012 53.5536 33.012 53.1605C33.012 52.7675 33.3337 52.4487 33.7307 52.4487H79.3195C79.7165 52.4487 80.0383 52.7675 80.0383 53.1605C80.0383 53.5536 79.7165 53.8723 79.3195 53.8723Z" fill="#E2783D"/>
<path d="M72.8076 55.1623C72.4106 55.1623 72.0889 54.8436 72.0889 54.4505V51.871C72.0889 51.4779 72.4106 51.1592 72.8076 51.1592C73.2047 51.1592 73.5264 51.4779 73.5264 51.871V54.4505C73.5264 54.8436 73.2047 55.1623 72.8076 55.1623Z" fill="#E2783D"/>
<path d="M78.0172 70.6423H66.2944C65.8974 70.6423 65.5757 70.3237 65.5757 69.9305C65.5757 69.5374 65.8974 69.2188 66.2944 69.2188H78.0172C78.4142 69.2188 78.7359 69.5374 78.7359 69.9305C78.7359 70.3237 78.4141 70.6423 78.0172 70.6423Z" fill="white"/>
<path d="M78.8797 74.5972H63.2498C62.8527 74.5972 62.531 74.2786 62.531 73.8854C62.531 73.4922 62.8527 73.1736 63.2498 73.1736H78.8795C79.2766 73.1736 79.5983 73.4922 79.5983 73.8854C79.5983 74.2786 79.2766 74.5972 78.8797 74.5972Z" fill="white"/>
<path d="M72.8076 81.5399C72.4106 81.5399 72.0889 81.1994 72.0889 80.7795V64.2407C72.0889 63.8207 72.4106 63.4802 72.8076 63.4802C73.2047 63.4802 73.5264 63.8207 73.5264 64.2407V80.7795C73.5264 81.1994 73.2047 81.5399 72.8076 81.5399Z" fill="white"/>
<path d="M58.4788 67.048C58.0818 67.048 57.7601 66.7294 57.7601 66.3362V59.8859C57.7601 59.4927 58.0818 59.1741 58.4788 59.1741C58.8757 59.1741 59.1974 59.4927 59.1974 59.8859V66.3362C59.1974 66.7294 58.8756 67.048 58.4788 67.048Z" fill="#344C59"/>
<path d="M70.2015 82.2518C64.7775 82.2518 60.3646 77.8816 60.3646 72.51C60.3646 67.1383 64.7774 62.7683 70.2015 62.7683C75.6256 62.7683 80.0383 67.1383 80.0383 72.51C80.0383 77.8816 75.6256 82.2518 70.2015 82.2518ZM70.2015 64.1919C65.57 64.1919 61.8021 67.9234 61.8021 72.51C61.8021 77.0966 65.57 80.8282 70.2015 80.8282C74.8328 80.8282 78.6008 77.0966 78.6008 72.51C78.6008 67.9234 74.8328 64.1919 70.2015 64.1919Z" fill="white"/>
</svg>
