<svg width="118" height="118" viewBox="0 0 118 118" fill="none" xmlns="http://www.w3.org/2000/svg">
<path fill-rule="evenodd" clip-rule="evenodd" d="M59.486 1.01126C91.2424 1.01126 116.986 26.7545 116.986 58.5108C116.986 90.2673 91.2424 116.011 59.486 116.011C27.7296 116.011 1.98606 90.2673 1.98606 58.5108C1.98606 26.7545 27.7296 1.01126 59.486 1.01126Z" fill="#F9BF3B"/>
<g clip-path="url(#clip0_276904_11)">
<path d="M59 89C75.5685 89 89 75.5685 89 59C89 42.4315 75.5685 29 59 29C42.4315 29 29 42.4315 29 59C29 75.5685 42.4315 89 59 89Z" fill="#3DB9E3"/>
<path d="M84 40H36C34.8954 40 34 40.8954 34 42V75C34 76.1046 34.8954 77 36 77H84C85.1046 77 86 76.1046 86 75V42C86 40.8954 85.1046 40 84 40Z" fill="#343840"/>
<path d="M40 44L76 29L81 44H40Z" fill="#2CA651"/>
<path d="M81 43H36C34.8954 43 34 43.8954 34 45V78C34 79.1046 34.8954 80 36 80H81C82.1046 80 83 79.1046 83 78V45C83 43.8954 82.1046 43 81 43Z" fill="#464C59"/>
<path d="M36 46H38" stroke="#1E3064" stroke-width="1.75" stroke-miterlimit="10"/>
<path d="M36 46H38" stroke="#FFFB01" stroke-miterlimit="10"/>
<path d="M40 46H42" stroke="#1E3064" stroke-width="1.75" stroke-miterlimit="10"/>
<path d="M40 46H42" stroke="#FFFB01" stroke-miterlimit="10"/>
<path d="M44 46H46" stroke="#1E3064" stroke-width="1.75" stroke-miterlimit="10"/>
<path d="M44 46H46" stroke="#FFFB01" stroke-miterlimit="10"/>
<path d="M48 46H50" stroke="#1E3064" stroke-width="1.75" stroke-miterlimit="10"/>
<path d="M48 46H50" stroke="#FFFB01" stroke-miterlimit="10"/>
<path d="M52 46H54" stroke="#1E3064" stroke-width="1.75" stroke-miterlimit="10"/>
<path d="M52 46H54" stroke="#FFFB01" stroke-miterlimit="10"/>
<path d="M56 46H58" stroke="#1E3064" stroke-width="1.75" stroke-miterlimit="10"/>
<path d="M56 46H58" stroke="#FFFB01" stroke-miterlimit="10"/>
<path d="M60 46H62" stroke="#1E3064" stroke-width="1.75" stroke-miterlimit="10"/>
<path d="M60 46H62" stroke="#FFFB01" stroke-miterlimit="10"/>
<path d="M64 46H66" stroke="#1E3064" stroke-width="1.75" stroke-miterlimit="10"/>
<path d="M64 46H66" stroke="#FFFB01" stroke-miterlimit="10"/>
<path d="M68 46H70" stroke="#1E3064" stroke-width="1.75" stroke-miterlimit="10"/>
<path d="M68 46H70" stroke="#FFFB01" stroke-miterlimit="10"/>
<path d="M72 46H74" stroke="#1E3064" stroke-width="1.75" stroke-miterlimit="10"/>
<path d="M72 46H74" stroke="#FFFB01" stroke-miterlimit="10"/>
<path d="M76 46H78" stroke="#1E3064" stroke-width="1.75" stroke-miterlimit="10"/>
<path d="M76 46H78" stroke="#FFFB01" stroke-miterlimit="10"/>
<path d="M80 46H82" stroke="#1E3064" stroke-width="1.75" stroke-miterlimit="10"/>
<path d="M80 46H82" stroke="#FFFB01" stroke-miterlimit="10"/>
<path d="M36 77H38" stroke="#1E3064" stroke-width="1.75" stroke-miterlimit="10"/>
<path d="M36 77H38" stroke="#FFFB01" stroke-miterlimit="10"/>
<path d="M40 77H42" stroke="#1E3064" stroke-width="1.75" stroke-miterlimit="10"/>
<path d="M40 77H42" stroke="#FFFB01" stroke-miterlimit="10"/>
<path d="M44 77H46" stroke="#1E3064" stroke-width="1.75" stroke-miterlimit="10"/>
<path d="M44 77H46" stroke="#FFFB01" stroke-miterlimit="10"/>
<path d="M48 77H50" stroke="#1E3064" stroke-width="1.75" stroke-miterlimit="10"/>
<path d="M48 77H50" stroke="#FFFB01" stroke-miterlimit="10"/>
<path d="M52 77H54" stroke="#1E3064" stroke-width="1.75" stroke-miterlimit="10"/>
<path d="M52 77H54" stroke="#FFFB01" stroke-miterlimit="10"/>
<path d="M56 77H58" stroke="#1E3064" stroke-width="1.75" stroke-miterlimit="10"/>
<path d="M56 77H58" stroke="#FFFB01" stroke-miterlimit="10"/>
<path d="M60 77H62" stroke="#1E3064" stroke-width="1.75" stroke-miterlimit="10"/>
<path d="M60 77H62" stroke="#FFFB01" stroke-miterlimit="10"/>
<path d="M64 77H66" stroke="#1E3064" stroke-width="1.75" stroke-miterlimit="10"/>
<path d="M64 77H66" stroke="#FFFB01" stroke-miterlimit="10"/>
<path d="M68 77H70" stroke="#1E3064" stroke-width="1.75" stroke-miterlimit="10"/>
<path d="M68 77H70" stroke="#FFFB01" stroke-miterlimit="10"/>
<path d="M72 77H74" stroke="#1E3064" stroke-width="1.75" stroke-miterlimit="10"/>
<path d="M72 77H74" stroke="#FFFB01" stroke-miterlimit="10"/>
<path d="M76 77H78" stroke="#1E3064" stroke-width="1.75" stroke-miterlimit="10"/>
<path d="M76 77H78" stroke="#FFFB01" stroke-miterlimit="10"/>
<path d="M80 77H82" stroke="#1E3064" stroke-width="1.75" stroke-miterlimit="10"/>
<path d="M80 77H82" stroke="#FFFB01" stroke-miterlimit="10"/>
<path d="M72.5 39C73.8807 39 75 37.8807 75 36.5C75 35.1193 73.8807 34 72.5 34C71.1193 34 70 35.1193 70 36.5C70 37.8807 71.1193 39 72.5 39Z" fill="#4DB678"/>
<path d="M72 57H83V67H72C71.7348 67 71.4804 66.8946 71.2929 66.7071C71.1054 66.5196 71 66.2652 71 66V58C71 57.7348 71.1054 57.4804 71.2929 57.2929C71.4804 57.1054 71.7348 57 72 57Z" fill="#343840"/>
<path d="M74.5 63.5C75.3284 63.5 76 62.8284 76 62C76 61.1716 75.3284 60.5 74.5 60.5C73.6716 60.5 73 61.1716 73 62C73 62.8284 73.6716 63.5 74.5 63.5Z" fill="#8D8D93"/>
<path d="M79.5 64.5C80.8807 64.5 82 63.3807 82 62C82 60.6193 80.8807 59.5 79.5 59.5C78.1193 59.5 77 60.6193 77 62C77 63.3807 78.1193 64.5 79.5 64.5Z" fill="#8D8D93"/>
<path d="M79.5 63C80.0523 63 80.5 62.5523 80.5 62C80.5 61.4477 80.0523 61 79.5 61C78.9477 61 78.5 61.4477 78.5 62C78.5 62.5523 78.9477 63 79.5 63Z" fill="#DEDCE0"/>
</g>
<defs>
<clipPath id="clip0_276904_11">
<rect width="60" height="60" fill="white" transform="translate(29 29)"/>
</clipPath>
</defs>
</svg>
