<svg width="118" height="118" viewBox="0 0 118 118" fill="none" xmlns="http://www.w3.org/2000/svg">
<path fill-rule="evenodd" clip-rule="evenodd" d="M59.486 1.01126C91.2423 1.01126 116.986 26.7545 116.986 58.5108C116.986 90.2673 91.2423 116.011 59.486 116.011C27.7298 116.011 1.98606 90.2673 1.98606 58.5108C1.98606 26.7545 27.7298 1.01126 59.486 1.01126Z" fill="#F9BF3B"/>
<g clip-path="url(#clip0_276904_9)">
<path d="M84 34H34V84H84V34Z" fill="#FFFBDB"/>
<path d="M83.5 34.5V83.5H34.5V34.5H83.5Z" stroke="black" stroke-opacity="0.58"/>
<path d="M72.8529 42.7847H65.9177V75.1488H72.8529V42.7847Z" fill="#1C4E80" stroke="black" stroke-miterlimit="1.5" stroke-linecap="round" stroke-linejoin="round"/>
<path d="M49.7641 56.6548H42.8289V75.1486H49.7641V56.6548Z" fill="#EA6A47" stroke="black" stroke-miterlimit="1.5" stroke-linecap="round" stroke-linejoin="round"/>
<path d="M61.3228 47.408H54.3876V75.1488H61.3228V47.408Z" fill="white" stroke="black" stroke-miterlimit="1.5" stroke-linecap="round" stroke-linejoin="round"/>
<path fill-rule="evenodd" clip-rule="evenodd" d="M40.4247 42.5997L38.2054 38.1611L35.9861 42.5997H40.4247Z" fill="#202020"/>
<path fill-rule="evenodd" clip-rule="evenodd" d="M75.3781 77.553L79.8166 79.7722L75.3781 81.9915V77.553Z" fill="#202020"/>
<line x1="37.3333" y1="79.6665" x2="75.6666" y2="79.6665" stroke="#202020" stroke-width="2"/>
<line x1="38.3333" y1="40.6665" x2="38.3333" y2="79.8332" stroke="#202020" stroke-width="2"/>
</g>
<defs>
<clipPath id="clip0_276904_9">
<rect width="50" height="49.9334" fill="white" transform="translate(34 34)"/>
</clipPath>
</defs>
</svg>
