<svg width="118" height="118" viewBox="0 0 118 118" fill="none" xmlns="http://www.w3.org/2000/svg">
<path fill-rule="evenodd" clip-rule="evenodd" d="M59.486 1.01126C91.2423 1.01126 116.986 26.7545 116.986 58.5108C116.986 90.2673 91.2423 116.011 59.486 116.011C27.7296 116.011 1.98594 90.2673 1.98594 58.5108C1.98594 26.7545 27.7296 1.01126 59.486 1.01126Z" fill="#F9BF3B"/>
<g clip-path="url(#clip0_276904_8)">
<path d="M29 80.9884H89V35.0002H29V80.9884Z" fill="#A3A3A3"/>
<path d="M87.8075 79.8231H30.0425V36.1675H87.8075V79.8231Z" fill="#AFAFAF"/>
<path d="M85.7544 76.8821H31.7778V44.3499H85.7544V76.8821Z" fill="#CFD8E5"/>
<path d="M84.966 76.0844H32.4088V45.1497H84.966V76.0844Z" fill="#E2E9F2"/>
<path d="M85.7545 40.1594C85.7545 41.8366 84.3951 43.195 82.717 43.195C81.0417 43.195 79.6813 41.8366 79.6813 40.1594C79.6813 38.4822 81.0417 37.1228 82.717 37.1228C84.3951 37.1228 85.7545 38.4822 85.7545 40.1594Z" fill="#A3A3A3"/>
<path d="M85.3252 40.1594C85.3252 41.5994 84.158 42.7666 82.7171 42.7666C81.2771 42.7666 80.1099 41.5994 80.1099 40.1594C80.1099 38.7194 81.2771 37.5513 82.7171 37.5513C84.158 37.5513 85.3252 38.7194 85.3252 40.1594Z" fill="#FF7031"/>
<path d="M77.8636 40.1594C77.8636 41.8366 76.5032 43.195 74.827 43.195C73.1498 43.195 71.7895 41.8366 71.7895 40.1594C71.7895 38.4822 73.1498 37.1228 74.827 37.1228C76.5032 37.1228 77.8636 38.4822 77.8636 40.1594Z" fill="#A3A3A3"/>
<path d="M77.4351 40.1594C77.4351 41.5994 76.2661 42.7666 74.827 42.7666C73.387 42.7666 72.2198 41.5994 72.2198 40.1594C72.2198 38.7194 73.387 37.5513 74.827 37.5513C76.2661 37.5513 77.4351 38.7194 77.4351 40.1594Z" fill="#E2E9F2"/>
<path d="M69.8591 40.1594C69.8591 41.8366 68.4979 43.195 66.8225 43.195C65.1454 43.195 63.785 41.8366 63.785 40.1594C63.785 38.4822 65.1454 37.1228 66.8225 37.1228C68.4979 37.1228 69.8591 38.4822 69.8591 40.1594Z" fill="#A3A3A3"/>
<path d="M69.4297 40.1594C69.4297 41.5994 68.2616 42.7666 66.8225 42.7666C65.3816 42.7666 64.2144 41.5994 64.2144 40.1594C64.2144 38.7194 65.3816 37.5513 66.8225 37.5513C68.2616 37.5513 69.4297 38.7194 69.4297 40.1594Z" fill="#E2E9F2"/>
<path d="M29 80.9884H89V35.0002H29V80.9884Z" fill="url(#paint0_linear_276904_8)"/>
<path d="M34.701 35L68.5607 80.9882H82.6729L48.8132 35H34.701Z" fill="white" fill-opacity="0.203922"/>
<path d="M55.6949 35L88.9997 80.2353V70.6512L62.7515 35H55.6949Z" fill="white" fill-opacity="0.203922"/>
<path d="M54.6275 54.5695H61.4497V47.7463H54.6275V54.5695Z" fill="url(#paint1_linear_276904_8)"/>
<path d="M54.6275 83.9086H61.4497V77.0845H54.6275V83.9086Z" fill="url(#paint2_linear_276904_8)"/>
<path d="M69.1494 69.2387H75.9725V62.4155H69.1494V69.2387Z" fill="url(#paint3_linear_276904_8)"/>
<path d="M39.8104 69.2387H46.6344V62.4155H39.8104V69.2387Z" fill="url(#paint4_linear_276904_8)"/>
<path d="M63.4897 55.5577L68.315 60.3821L73.1422 55.5577L68.3159 50.7324L63.4897 55.5577Z" fill="url(#paint5_linear_276904_8)"/>
<path d="M42.7456 76.3038L47.5709 81.13L52.3953 76.3038L47.5709 71.4775L42.7456 76.3038Z" fill="url(#paint6_linear_276904_8)"/>
<path d="M63.3875 76.2005L68.2128 81.024L73.039 76.2005L68.2128 71.3743L63.3875 76.2005Z" fill="url(#paint7_linear_276904_8)"/>
<path d="M42.6415 55.4545L47.4669 60.2788L52.2912 55.4545L47.4669 50.6292L42.6415 55.4545Z" fill="url(#paint8_linear_276904_8)"/>
<path d="M43.2209 65.8261C43.2209 73.9289 49.79 80.4971 57.8919 80.4971C65.9938 80.4971 72.5619 73.9289 72.5619 65.8261C72.5619 57.7252 65.9938 51.158 57.8919 51.158C49.79 51.158 43.2209 57.7252 43.2209 65.8261ZM50.2119 65.6798C50.2119 61.4386 53.6497 58.0008 57.8919 58.0008C62.1341 58.0008 65.5719 61.4386 65.5719 65.6798C65.5719 69.9221 62.1341 73.3598 57.8919 73.3598C53.6497 73.3598 50.2119 69.9221 50.2119 65.6798Z" fill="url(#paint9_linear_276904_8)"/>
<path d="M48.4353 65.8262C48.4353 71.049 52.67 75.2828 57.8919 75.2828C63.1137 75.2828 67.3475 71.049 67.3475 65.8262C67.3475 60.6053 63.1137 56.3716 57.8919 56.3716C52.67 56.3716 48.4353 60.6053 48.4353 65.8262ZM50.3581 65.8262C50.3581 61.585 53.7969 58.1472 58.0382 58.1472C62.2794 58.1472 65.7181 61.585 65.7181 65.8262C65.7181 70.0685 62.2794 73.5063 58.0382 73.5063C53.7969 73.5063 50.3581 70.0685 50.3581 65.8262Z" fill="url(#paint10_linear_276904_8)"/>
<path d="M55.2866 65.828C55.2866 67.3458 56.5194 68.5786 58.0382 68.5786C59.5569 68.5786 60.7888 67.3458 60.7888 65.828C60.7888 64.3073 59.5569 63.0754 58.0382 63.0754C56.5194 63.0754 55.2866 64.3073 55.2866 65.828Z" fill="url(#paint11_linear_276904_8)"/>
<path d="M56.8353 65.4371C56.8353 64.509 57.5854 63.7581 58.5116 63.7581C59.4388 63.7581 60.1916 64.509 60.1916 65.4371C60.1916 66.3615 59.4388 67.1153 58.5116 67.1153C57.5854 67.1153 56.8353 66.3615 56.8353 65.4371Z" fill="url(#paint12_linear_276904_8)"/>
</g>
<defs>
<linearGradient id="paint0_linear_276904_8" x1="58.995" y1="124.841" x2="58.995" y2="36.3001" gradientUnits="userSpaceOnUse">
<stop stop-color="white" stop-opacity="0.101961"/>
<stop offset="0.13" stop-color="white" stop-opacity="0.0784314"/>
<stop offset="1" stop-color="white" stop-opacity="0.0509804"/>
</linearGradient>
<linearGradient id="paint1_linear_276904_8" x1="58.0383" y1="54.9181" x2="58.0383" y2="45.2813" gradientUnits="userSpaceOnUse">
<stop stop-color="#8BC6FF"/>
<stop offset="1" stop-color="#008BFF"/>
</linearGradient>
<linearGradient id="paint2_linear_276904_8" x1="58.0383" y1="85.8232" x2="58.0383" y2="72.1744" gradientUnits="userSpaceOnUse">
<stop stop-color="#8BC6FF"/>
<stop offset="1" stop-color="#008BFF"/>
</linearGradient>
<linearGradient id="paint3_linear_276904_8" x1="59.7864" y1="65.8281" x2="77.8694" y2="65.8281" gradientUnits="userSpaceOnUse">
<stop stop-color="#8BC6FF"/>
<stop offset="1" stop-color="#008BFF"/>
</linearGradient>
<linearGradient id="paint4_linear_276904_8" x1="39.2576" y1="65.8272" x2="72.3883" y2="65.8272" gradientUnits="userSpaceOnUse">
<stop stop-color="#8BC6FF"/>
<stop offset="1" stop-color="#008BFF"/>
</linearGradient>
<linearGradient id="paint5_linear_276904_8" x1="74.5037" y1="28.8067" x2="83.133" y2="20.175" gradientUnits="userSpaceOnUse">
<stop stop-color="#8BC6FF"/>
<stop offset="1" stop-color="#008BFF"/>
</linearGradient>
<linearGradient id="paint6_linear_276904_8" x1="74.7525" y1="53.3876" x2="92.1313" y2="36.0138" gradientUnits="userSpaceOnUse">
<stop stop-color="#8BC6FF"/>
<stop offset="1" stop-color="#008BFF"/>
</linearGradient>
<linearGradient id="paint7_linear_276904_8" x1="23.2275" y1="71.7725" x2="41.0288" y2="89.5773" gradientUnits="userSpaceOnUse">
<stop stop-color="#8BC6FF"/>
<stop offset="1" stop-color="#008BFF"/>
</linearGradient>
<linearGradient id="paint8_linear_276904_8" x1="44.5928" y1="52.5776" x2="65.6546" y2="73.6394" gradientUnits="userSpaceOnUse">
<stop stop-color="#8BC6FF"/>
<stop offset="1" stop-color="#008BFF"/>
</linearGradient>
<linearGradient id="paint9_linear_276904_8" x1="43.2218" y1="65.8272" x2="72.5618" y2="65.8272" gradientUnits="userSpaceOnUse">
<stop stop-color="#8BC6FF"/>
<stop offset="1" stop-color="#008BFF"/>
</linearGradient>
<linearGradient id="paint10_linear_276904_8" x1="65.5992" y1="73.3099" x2="47.3965" y2="55.6357" gradientUnits="userSpaceOnUse">
<stop stop-color="#8BC6FF"/>
<stop offset="1" stop-color="#0079FF"/>
</linearGradient>
<linearGradient id="paint11_linear_276904_8" x1="61.0289" y1="62.7454" x2="53.3618" y2="70.6398" gradientUnits="userSpaceOnUse">
<stop stop-color="#8BC6FF"/>
<stop offset="1" stop-color="#0079FF"/>
</linearGradient>
<linearGradient id="paint12_linear_276904_8" x1="56.8352" y1="65.4372" x2="60.192" y2="65.4372" gradientUnits="userSpaceOnUse">
<stop stop-color="#8BC6FF" stop-opacity="0.301961"/>
<stop offset="1" stop-color="#8FD4FF" stop-opacity="0.301961"/>
</linearGradient>
<clipPath id="clip0_276904_8">
<rect width="60" height="48.9087" fill="white" transform="translate(29 35)"/>
</clipPath>
</defs>
</svg>
