<svg width="118" height="118" viewBox="0 0 118 118" fill="none" xmlns="http://www.w3.org/2000/svg">
<path fill-rule="evenodd" clip-rule="evenodd" d="M59.486 1.01126C91.2424 1.01126 116.986 26.7545 116.986 58.5108C116.986 90.2673 91.2424 116.011 59.486 116.011C27.7296 116.011 1.98606 90.2673 1.98606 58.5108C1.98606 26.7545 27.7296 1.01126 59.486 1.01126Z" fill="#F9BF3B"/>
<path d="M59.4464 57.3541C64.7073 57.3541 68.9884 53.073 68.9884 47.8108C68.9884 42.5506 64.708 38.2715 59.4464 38.2715C54.1862 38.2715 49.9071 42.5506 49.9071 47.8108C49.9071 53.073 54.1862 57.3541 59.4464 57.3541Z" fill="#F9EFE3"/>
<path d="M66.4038 55.7881C64.5273 57.4443 62.0666 58.4584 59.3726 58.4584C56.7036 58.4584 54.1934 57.4628 52.3222 55.8336C52.3064 55.8441 52.1468 55.8593 52.129 55.8672C49.046 57.3257 47.0521 59.845 47.0521 62.9624V80.121H71.3495V62.9604C71.3488 59.8549 69.5422 57.2459 66.4038 55.7881Z" fill="#B0E0D4"/>
<path d="M41.5294 61.8325V70.1817H31.5898V60.3714C31.5898 58.5635 32.6745 57.2283 34.4138 56.4035C35.5505 57.3464 37.1079 57.914 38.6962 57.914C40.1936 57.914 41.6204 57.4057 42.7261 56.5578L43.5233 57.1189C41.8169 58.8918 41.5294 61.7 41.5294 61.8325ZM38.7971 56.8097C35.7879 56.8097 33.3397 54.3602 33.3397 51.3496C33.3397 48.3391 35.7879 45.8896 38.7971 45.8896C41.809 45.8896 44.2597 48.3391 44.2597 51.3496C44.2597 54.3602 41.8096 56.8097 38.7971 56.8097Z" fill="#E0F1F8"/>
<path d="M74.9488 57.273L75.8217 56.7126C76.9288 57.5585 78.3325 58.0675 79.8292 58.0675C81.4176 58.0675 82.934 57.4998 84.0714 56.557C85.8114 57.3825 86.809 58.717 86.809 60.5249V70.1816H76.8707V61.9867C76.8707 61.8541 76.6565 59.0453 74.9488 57.273ZM74.3092 51.5025C74.3092 48.4919 76.76 46.0425 79.7718 46.0425C82.7811 46.0425 85.2292 48.4919 85.2292 51.5025C85.2292 54.513 82.7811 56.9631 79.7718 56.9631C76.76 56.9631 74.3092 54.513 74.3092 51.5025Z" fill="#E0F1F8"/>
<path d="M59.2334 59.6553C52.756 59.6553 47.4852 54.3839 47.4852 47.9039C47.4852 41.4259 52.756 36.1558 59.2334 36.1558C65.712 36.1558 70.9841 41.4259 70.9841 47.9039C70.9841 54.3839 65.712 59.6553 59.2334 59.6553ZM59.2334 39.4689C54.5817 39.4689 50.7984 43.2529 50.7984 47.9039C50.7984 52.5575 54.5817 56.3421 59.2334 56.3421C63.8857 56.3421 67.6709 52.5575 67.6709 47.9039C67.6703 43.2529 63.885 39.4689 59.2334 39.4689Z" fill="#454B53"/>
<path d="M71.7517 81.3746C70.8365 81.3746 70.0948 80.6329 70.0948 79.7177V63.0535C70.0948 60.3397 68.5499 58.1382 65.7451 56.8564C64.913 56.476 64.5477 55.4935 64.9275 54.6608C65.3086 53.8281 66.2897 53.4621 67.1231 53.8432C71.1181 55.6702 73.4079 59.027 73.4079 63.0542V79.7177C73.4086 80.6329 72.6668 81.3746 71.7517 81.3746Z" fill="#454B53"/>
<path d="M46.8793 81.3759C45.9642 81.3759 45.2224 80.6342 45.2224 79.719V63.0542C45.2224 59.0935 47.4253 55.7797 51.2666 53.9625C52.0947 53.5702 53.0811 53.9243 53.4727 54.7511C53.8644 55.5779 53.511 56.5656 52.6842 56.9572C49.9703 58.241 48.5363 60.3495 48.5363 63.0542V79.7183C48.5363 80.6342 47.7945 81.3759 46.8793 81.3759Z" fill="#454B53"/>
<path d="M38.7912 59.0646C34.5648 59.0646 31.125 55.6242 31.125 51.3958C31.125 47.1668 34.5648 43.7271 38.7912 43.7271C43.0215 43.7271 46.4632 47.1668 46.4632 51.3958C46.4626 55.6242 43.0215 59.0646 38.7912 59.0646ZM38.7912 47.0402C36.3912 47.0402 34.4382 48.9939 34.4382 51.3952C34.4382 53.7965 36.3912 55.7501 38.7912 55.7501C41.1951 55.7501 43.1494 53.7965 43.1494 51.3952C43.1494 48.9939 41.1945 47.0402 38.7912 47.0402Z" fill="#454B53"/>
<path d="M31.4343 71.7475C30.5191 71.7475 29.7773 71.0058 29.7773 70.0906V60.4174C29.7773 57.759 31.158 55.6405 33.6648 54.4524C34.491 54.062 35.4793 54.4128 35.871 55.2403C36.2633 56.0671 35.9112 57.0548 35.0837 57.4464C33.7426 58.082 33.0912 59.0539 33.0912 60.4174V70.0906C33.0912 71.0058 32.3494 71.7475 31.4343 71.7475Z" fill="#454B53"/>
<path d="M79.7389 59.0646C75.5105 59.0646 72.0701 55.6242 72.0701 51.3958C72.0701 47.1668 75.5105 43.7271 79.7389 43.7271C83.9672 43.7271 87.407 47.1668 87.407 51.3958C87.407 55.6242 83.9672 59.0646 79.7389 59.0646ZM79.7389 47.0402C77.3369 47.0402 75.3839 48.9939 75.3839 51.3952C75.3839 53.7965 77.3375 55.7501 79.7389 55.7501C82.1402 55.7501 84.0931 53.7965 84.0931 51.3952C84.0931 48.9939 82.1402 47.0402 79.7389 47.0402Z" fill="#454B53"/>
<path d="M87.1934 71.7477C86.2789 71.7477 85.5371 71.0059 85.5371 70.0907V60.4176C85.5371 59.027 84.86 58.0406 83.4648 57.4024C82.6327 57.022 82.2674 56.0382 82.6485 55.2068C83.0296 54.374 84.0134 54.0101 84.8441 54.3905C87.4274 55.5734 88.8503 57.7136 88.8503 60.4182V70.0914C88.8503 71.0059 88.1085 71.7477 87.1934 71.7477Z" fill="#454B53"/>
</svg>
