<svg width="30" height="19" viewBox="0 0 30 19" fill="none" xmlns="http://www.w3.org/2000/svg">
<path fill-rule="evenodd" clip-rule="evenodd" d="M14.9649 5.52804L22.9694 0.336841C23.6623 -0.11228 24.7856 -0.11228 25.4784 0.336841C26.1713 0.786192 26.1713 1.5146 25.4784 1.96393L16.6972 7.65878C16.2151 7.97155 15.5248 8.06672 14.916 7.94427C14.3357 8.03795 13.6962 7.9377 13.2425 7.64353L4.52009 1.98672C3.83183 1.54002 3.83183 0.81669 4.52009 0.370444C5.20821 -0.0760093 6.32399 -0.0760093 7.01215 0.370444L14.9649 5.52804ZM14.9469 15.5984L25.8622 8.4606C26.8069 7.84275 28.3387 7.84275 29.2834 8.4606C30.2282 9.07824 30.2282 10.08 29.2834 10.6978L17.3089 18.5284C16.6517 18.9582 15.7103 19.089 14.8801 18.9208C14.0888 19.0495 13.2168 18.9117 12.5981 18.5073L0.703825 10.7288C-0.234609 10.1154 -0.234609 9.12047 0.703825 8.5066C1.64223 7.89296 3.16373 7.89296 4.10213 8.5066L14.9469 15.5984Z" fill="white"/>
</svg>
