<svg width="161" height="155" viewBox="0 0 161 155" fill="none" xmlns="http://www.w3.org/2000/svg">
<path d="M58.1443 18.5799C53.1763 13.0673 51.7853 9.29553 42.9423 3.00928C33.1058 3.00928 15.1218 20.4174 21.1827 29.7017C32.2116 41.9841 74.9359 43.2413 80.5994 42.3709C81.2949 41.3071 61.6218 22.7385 58.1443 18.5799Z" fill="#FFCF48"/>
<path d="M53.077 16.7422C48.7052 11.4231 47.4135 7.84472 39.3654 1.94531C30.5225 1.94531 14.327 18.5797 19.7917 27.3805C29.7276 39.0826 68.1795 40.3398 73.2468 39.4694C73.9424 38.4056 56.1571 20.7074 53.077 16.7422Z" fill="#FFBC33"/>
<path d="M117.164 3.00928C108.321 9.19882 106.83 12.9706 101.962 18.5798C98.484 22.7384 78.7116 41.4038 79.6058 42.4676C85.1699 43.4347 127.994 42.0808 138.923 29.7984C144.885 20.4174 127 3.10599 117.164 3.00928Z" fill="#FFCF48"/>
<path d="M58.1443 18.5799C53.1763 13.0673 51.7853 9.29553 42.9423 3.00928C33.1058 3.00928 15.1218 20.4174 21.1827 29.7017C32.2116 41.9841 74.9359 43.2413 80.5994 42.3709C81.2949 41.3071 61.6218 22.7385 58.1443 18.5799Z" stroke="black" stroke-width="6" stroke-miterlimit="10"/>
<path d="M117.164 3.00928C108.321 9.19882 106.83 12.9706 101.962 18.5798C98.484 22.7384 78.7116 41.4038 79.6058 42.4676C85.1699 43.4347 127.994 42.0808 138.923 29.7984C144.885 20.4174 127 3.10599 117.164 3.00928Z" stroke="black" stroke-width="6" stroke-miterlimit="10"/>
<path d="M139.122 52.3323H20.8846C14.3269 52.3323 8.96155 57.5547 8.96155 63.9377V140.34C8.96155 146.723 14.3269 151.945 20.8846 151.945H139.122C145.68 151.945 151.045 146.723 151.045 140.34V63.9377C151.045 57.5547 145.68 52.3323 139.122 52.3323Z" fill="#FF563B"/>
<path d="M148.163 69.7405H22.9711C22.9711 70.0306 22.8718 70.224 22.8718 70.5142V138.696C22.8718 144.402 27.5416 149.044 33.4038 149.044H137.731C147.17 149.721 148.263 145.272 148.263 138.696V70.5142C148.263 70.224 148.163 70.0306 148.163 69.7405Z" fill="#FF6E50"/>
<path d="M139.122 52.3323H20.8846C14.3269 52.3323 8.96155 57.5547 8.96155 63.9377V140.34C8.96155 146.723 14.3269 151.945 20.8846 151.945H139.122C145.68 151.945 151.045 146.723 151.045 140.34V63.9377C151.045 57.5547 145.68 52.3323 139.122 52.3323Z" stroke="black" stroke-width="6" stroke-miterlimit="10"/>
<path d="M94.4103 62.9707H65.5962V151.945H94.4103V62.9707Z" fill="#FFCF48"/>
<path d="M89.4423 23.3188H70.5641C67.7821 23.3188 65.5962 25.4465 65.5962 28.1544V44.5954C65.5962 47.3033 67.7821 49.431 70.5641 49.431H89.4423C92.2244 49.431 94.4103 47.3033 94.4103 44.5954V28.1544C94.4103 25.4465 92.2244 23.3188 89.4423 23.3188Z" fill="#FFCF48"/>
<path d="M94.4103 62.9707H65.5962V151.945H94.4103V62.9707Z" stroke="black" stroke-width="6" stroke-miterlimit="10"/>
<path d="M89.4423 23.3188H70.5641C67.7821 23.3188 65.5962 25.4465 65.5962 28.1544V44.5954C65.5962 47.3033 67.7821 49.431 70.5641 49.431H89.4423C92.2244 49.431 94.4103 47.3033 94.4103 44.5954V28.1544C94.4103 25.4465 92.2244 23.3188 89.4423 23.3188Z" stroke="black" stroke-width="6" stroke-miterlimit="10"/>
<path fill-rule="evenodd" clip-rule="evenodd" d="M3 66.8389V53.2993C3 46.3361 8.36538 40.7268 14.9231 40.7268H146.077C152.635 40.7268 158 46.3361 158 53.2993V66.8389H3Z" fill="#FF563B" stroke="black" stroke-width="6" stroke-miterlimit="10"/>
<path fill-rule="evenodd" clip-rule="evenodd" d="M22.8718 63.744V53.2992C22.8718 47.98 27.4423 43.628 33.0064 43.628H144.984C151.144 43.1444 155.019 48.1734 155.119 53.2992V63.744H22.8718Z" fill="#FF6E50"/>
</svg>
